<svg width="1200" height="2000" xmlns="http://www.w3.org/2000/svg">
  <!-- Background -->
  <rect width="1200" height="2000" fill="#F5F7FA"/>
  
  <!-- Header -->
  <rect x="0" y="0" width="1200" height="80" fill="#FFFFFF" stroke="#D1D5DB" stroke-width="1"/>
  <text x="50" y="50" font-family="Montserrat" font-size="24" font-weight="bold" fill="#3A86FF">Fraldas e Patas Assinatura</text>
  
  <!-- Navigation -->
  <text x="600" y="50" font-family="Open Sans" font-size="16" fill="#4B5563">Início</text>
  <text x="700" y="50" font-family="Open Sans" font-size="16" fill="#1F2937">Produtos</text>
  <text x="800" y="50" font-family="Open Sans" font-size="16" fill="#4B5563">Como Funciona</text>
  <text x="950" y="50" font-family="Open Sans" font-size="16" fill="#4B5563">Contato</text>
  
  <!-- User Account -->
  <circle cx="1050" y="40" r="20" fill="#D1D5DB"/>
  <text x="1090" y="45" font-family="Open Sans" font-size="14" fill="#1F2937">Minha Conta</text>
  
  <!-- Page Title -->
  <text x="600" y="130" font-family="Montserrat" font-size="28" font-weight="bold" fill="#1F2937" text-anchor="middle">Monte sua Assinatura</text>
  <text x="600" y="170" font-family="Open Sans" font-size="16" fill="#4B5563" text-anchor="middle">Selecione seus produtos, quantidades e frequência de entrega</text>
  
  <!-- Progress Steps -->
  <rect x="200" y="200" width="800" height="60" fill="#FFFFFF" stroke="#D1D5DB" stroke-width="1" rx="30"/>
  
  <!-- Step 1 (Active) -->
  <circle cx="300" cy="230" r="20" fill="#3A86FF"/>
  <text x="300" y="235" font-family="Open Sans" font-size="14" font-weight="bold" fill="#FFFFFF" text-anchor="middle">1</text>
  <text x="300" y="270" font-family="Open Sans" font-size="14" font-weight="bold" fill="#3A86FF" text-anchor="middle">Produtos</text>
  
  <!-- Step 2 -->
  <circle cx="500" cy="230" r="20" fill="#D1D5DB"/>
  <text x="500" y="235" font-family="Open Sans" font-size="14" fill="#4B5563" text-anchor="middle">2</text>
  <text x="500" y="270" font-family="Open Sans" font-size="14" fill="#4B5563" text-anchor="middle">Plano</text>
  
  <!-- Step 3 -->
  <circle cx="700" cy="230" r="20" fill="#D1D5DB"/>
  <text x="700" y="235" font-family="Open Sans" font-size="14" fill="#4B5563" text-anchor="middle">3</text>
  <text x="700" y="270" font-family="Open Sans" font-size="14" fill="#4B5563" text-anchor="middle">Pagamento</text>
  
  <!-- Step 4 -->
  <circle cx="900" cy="230" r="20" fill="#D1D5DB"/>
  <text x="900" y="235" font-family="Open Sans" font-size="14" fill="#4B5563" text-anchor="middle">4</text>
  <text x="900" y="270" font-family="Open Sans" font-size="14" fill="#4B5563" text-anchor="middle">Confirmação</text>
  
  <!-- Progress Line -->
  <line x1="320" y1="230" x2="480" y2="230" stroke="#3A86FF" stroke-width="2"/>
  <line x1="520" y1="230" x2="680" y2="230" stroke="#D1D5DB" stroke-width="2"/>
  <line x1="720" y1="230" x2="880" y2="230" stroke="#D1D5DB" stroke-width="2"/>
  
  <!-- Product Categories -->
  <rect x="50" y="320" width="250" height="1500" fill="#FFFFFF" stroke="#D1D5DB" stroke-width="1"/>
  <text x="175" y="350" font-family="Montserrat" font-size="18" font-weight="bold" fill="#1F2937" text-anchor="middle">Categorias</text>
  
  <!-- Category 1 (Selected) -->
  <rect x="70" y="380" width="210" height="60" fill="#3A86FF" rx="5"/>
  <text x="175" y="420" font-family="Open Sans" font-size="16" font-weight="bold" fill="#FFFFFF" text-anchor="middle">Fraldas Geriátricas</text>
  
  <!-- Category 2 -->
  <rect x="70" y="450" width="210" height="60" fill="#FFFFFF" stroke="#D1D5DB" stroke-width="1" rx="5"/>
  <text x="175" y="490" font-family="Open Sans" font-size="16" fill="#4B5563" text-anchor="middle">Absorventes</text>
  
  <!-- Category 3 -->
  <rect x="70" y="520" width="210" height="60" fill="#FFFFFF" stroke="#D1D5DB" stroke-width="1" rx="5"/>
  <text x="175" y="560" font-family="Open Sans" font-size="16" fill="#4B5563" text-anchor="middle">Tapetes Higiênicos</text>
  
  <!-- Category 4 -->
  <rect x="70" y="590" width="210" height="60" fill="#FFFFFF" stroke="#D1D5DB" stroke-width="1" rx="5"/>
  <text x="175" y="630" font-family="Open Sans" font-size="16" fill="#4B5563" text-anchor="middle">Kits Promocionais</text>
  
  <!-- Filters -->
  <text x="175" y="690" font-family="Montserrat" font-size="18" font-weight="bold" fill="#1F2937" text-anchor="middle">Filtros</text>
  
  <!-- Size Filter -->
  <text x="90" y="730" font-family="Open Sans" font-size="16" font-weight="bold" fill="#1F2937">Tamanho</text>
  
  <!-- Size Options -->
  <rect x="90" y="750" width="30" height="30" fill="#FFFFFF" stroke="#3A86FF" stroke-width="2" rx="5"/>
  <text x="130" y="770" font-family="Open Sans" font-size="14" fill="#4B5563">P</text>
  
  <rect x="90" y="790" width="30" height="30" fill="#FFFFFF" stroke="#3A86FF" stroke-width="2" rx="5"/>
  <rect x="95" y="795" width="20" height="20" fill="#3A86FF" rx="3"/>
  <text x="130" y="810" font-family="Open Sans" font-size="14" fill="#4B5563">M</text>
  
  <rect x="90" y="830" width="30" height="30" fill="#FFFFFF" stroke="#3A86FF" stroke-width="2" rx="5"/>
  <text x="130" y="850" font-family="Open Sans" font-size="14" fill="#4B5563">G</text>
  
  <rect x="90" y="870" width="30" height="30" fill="#FFFFFF" stroke="#3A86FF" stroke-width="2" rx="5"/>
  <text x="130" y="890" font-family="Open Sans" font-size="14" fill="#4B5563">XG</text>
  
  <!-- Absorption Filter -->
  <text x="90" y="940" font-family="Open Sans" font-size="16" font-weight="bold" fill="#1F2937">Absorção</text>
  
  <!-- Absorption Options -->
  <rect x="90" y="960" width="30" height="30" fill="#FFFFFF" stroke="#3A86FF" stroke-width="2" rx="5"/>
  <text x="130" y="980" font-family="Open Sans" font-size="14" fill="#4B5563">Regular</text>
  
  <rect x="90" y="1000" width="30" height="30" fill="#FFFFFF" stroke="#3A86FF" stroke-width="2" rx="5"/>
  <rect x="95" y="1005" width="20" height="20" fill="#3A86FF" rx="3"/>
  <text x="130" y="1020" font-family="Open Sans" font-size="14" fill="#4B5563">Extra</text>
  
  <rect x="90" y="1040" width="30" height="30" fill="#FFFFFF" stroke="#3A86FF" stroke-width="2" rx="5"/>
  <text x="130" y="1060" font-family="Open Sans" font-size="14" fill="#4B5563">Noturna</text>
  
  <!-- Products Grid -->
  <rect x="350" y="320" width="800" height="1500" fill="#FFFFFF" stroke="#D1D5DB" stroke-width="1"/>
  <text x="380" y="350" font-family="Montserrat" font-size="18" font-weight="bold" fill="#1F2937">Fraldas Geriátricas</text>
  <text x="380" y="380" font-family="Open Sans" font-size="14" fill="#4B5563">12 produtos encontrados</text>
  
  <!-- Product 1 -->
  <rect x="380" y="420" width="220" height="320" fill="#FFFFFF" stroke="#D1D5DB" stroke-width="1" rx="10"/>
  <rect x="400" y="450" width="180" height="180" fill="#D1D5DB" rx="5"/>
  <text x="490" y="660" font-family="Montserrat" font-size="16" font-weight="bold" fill="#1F2937" text-anchor="middle">Fralda Geriátrica M</text>
  <text x="490" y="685" font-family="Open Sans" font-size="14" fill="#4B5563" text-anchor="middle">Absorção Extra</text>
  <text x="490" y="710" font-family="Montserrat" font-size="16" font-weight="bold" fill="#38B000" text-anchor="middle">R$ 89,90/mês</text>
  
  <!-- Quantity Selector -->
  <rect x="430" y="730" width="120" height="30" fill="#FFFFFF" stroke="#D1D5DB" stroke-width="1" rx="15"/>
  <circle cx="445" cy="745" r="10" fill="#3A86FF"/>
  <text x="445" y="749" font-family="Open Sans" font-size="14" font-weight="bold" fill="#FFFFFF" text-anchor="middle">-</text>
  <text x="490" y="749" font-family="Open Sans" font-size="14" fill="#1F2937" text-anchor="middle">1</text>
  <circle cx="535" cy="745" r="10" fill="#3A86FF"/>
  <text x="535" y="749" font-family="Open Sans" font-size="14" font-weight="bold" fill="#FFFFFF" text-anchor="middle">+</text>
  
  <!-- Product 2 -->
  <rect x="640" y="420" width="220" height="320" fill="#FFFFFF" stroke="#D1D5DB" stroke-width="1" rx="10"/>
  <rect x="660" y="450" width="180" height="180" fill="#D1D5DB" rx="5"/>
  <text x="750" y="660" font-family="Montserrat" font-size="16" font-weight="bold" fill="#1F2937" text-anchor="middle">Fralda Geriátrica G</text>
  <text x="750" y="685" font-family="Open Sans" font-size="14" fill="#4B5563" text-anchor="middle">Absorção Extra</text>
  <text x="750" y="710" font-family="Montserrat" font-size="16" font-weight="bold" fill="#38B000" text-anchor="middle">R$ 99,90/mês</text>
  
  <!-- Quantity Selector -->
  <rect x="690" y="730" width="120" height="30" fill="#FFFFFF" stroke="#D1D5DB" stroke-width="1" rx="15"/>
  <circle cx="705" cy="745" r="10" fill="#3A86FF"/>
  <text x="705" y="749" font-family="Open Sans" font-size="14" font-weight="bold" fill="#FFFFFF" text-anchor="middle">-</text>
  <text x="750" y="749" font-family="Open Sans" font-size="14" fill="#1F2937" text-anchor="middle">0</text>
  <circle cx="795" cy="745" r="10" fill="#3A86FF"/>
  <text x="795" y="749" font-family="Open Sans" font-size="14" font-weight="bold" fill="#FFFFFF" text-anchor="middle">+</text>
  
  <!-- Product 3 -->
  <rect x="900" y="420" width="220" height="320" fill="#FFFFFF" stroke="#D1D5DB" stroke-width="1" rx="10"/>
  <rect x="920" y="450" width="180" height="180" fill="#D1D5DB" rx="5"/>
  <text x="1010" y="660" font-family="Montserrat" font-size="16" font-weight="bold" fill="#1F2937" text-anchor="middle">Fralda Geriátrica XG</text>
  <text x="1010" y="685" font-family="Open Sans" font-size="14" fill="#4B5563" text-anchor="middle">Absorção Extra</text>
  <text x="1010" y="710" font-family="Montserrat" font-size="16" font-weight="bold" fill="#38B000" text-anchor="middle">R$ 109,90/mês</text>
  
  <!-- Quantity Selector -->
  <rect x="950" y="730" width="120" height="30" fill="#FFFFFF" stroke="#D1D5DB" stroke-width="1" rx="15"/>
  <circle cx="965" cy="745" r="10" fill="#3A86FF"/>
  <text x="965" y="749" font-family="Open Sans" font-size="14" font-weight="bold" fill="#FFFFFF" text-anchor="middle">-</text>
  <text x="1010" y="749" font-family="Open Sans" font-size="14" fill="#1F2937" text-anchor="middle">0</text>
  <circle cx="1055" cy="745" r="10" fill="#3A86FF"/>
  <text x="1055" y="749" font-family="Open Sans" font-size="14" font-weight="bold" fill="#FFFFFF" text-anchor="middle">+</text>
  
  <!-- Product 4 -->
  <rect x="380" y="780" width="220" height="320" fill="#FFFFFF" stroke="#D1D5DB" stroke-width="1" rx="10"/>
  <rect x="400" y="810" width="180" height="180" fill="#D1D5DB" rx="5"/>
  <text x="490" y="1020" font-family="Montserrat" font-size="16" font-weight="bold" fill="#1F2937" text-anchor="middle">Fralda Geriátrica M</text>
  <text x="490" y="1045" font-family="Open Sans" font-size="14" fill="#4B5563" text-anchor="middle">Absorção Noturna</text>
  <text x="490" y="1070" font-family="Montserrat" font-size="16" font-weight="bold" fill="#38B000" text-anchor="middle">R$ 99,90/mês</text>
  
  <!-- Quantity Selector -->
  <rect x="430" y="1090" width="120" height="30" fill="#FFFFFF" stroke="#D1D5DB" stroke-width="1" rx="15"/>
  <circle cx="445" cy="1105" r="10" fill="#3A86FF"/>
  <text x="445" y="1109" font-family="Open Sans" font-size="14" font-weight="bold" fill="#FFFFFF" text-anchor="middle">-</text>
  <text x="490" y="1109" font-family="Open Sans" font-size="14" fill="#1F2937" text-anchor="middle">0</text>
  <circle cx="535" cy="1105" r="10" fill="#3A86FF"/>
  <text x="535" y="1109" font-family="Open Sans" font-size="14" font-weight="bold" fill="#FFFFFF" text-anchor="middle">+</text>
  
  <!-- Product 5 -->
  <rect x="640" y="780" width="220" height="320" fill="#FFFFFF" stroke="#D1D5DB" stroke-width="1" rx="10"/>
  <rect x="660" y="810" width="180" height="180" fill="#D1D5DB" rx="5"/>
  <text x="750" y="1020" font-family="Montserrat" font-size="16" font-weight="bold" fill="#1F2937" text-anchor="middle">Fralda Geriátrica G</text>
  <text x="750" y="1045" font-family="Open Sans" font-size="14" fill="#4B5563" text-anchor="middle">Absorção Noturna</text>
  <text x="750" y="1070" font-family="Montserrat" font-size="16" font-weight="bold" fill="#38B000" text-anchor="middle">R$ 109,90/mês</text>
  
  <!-- Quantity Selector -->
  <rect x="690" y="1090" width="120" height="30" fill="#FFFFFF" stroke="#D1D5DB" stroke-width="1" rx="15"/>
  <circle cx="705" cy="1105" r="10" fill="#3A86FF"/>
  <text x="705" y="1109" font-family="Open Sans" font-size="14" font-weight="bold" fill="#FFFFFF" text-anchor="middle">-</text>
  <text x="750" y="1109" font-family="Open Sans" font-size="14" fill="#1F2937" text-anchor="middle">0</text>
  <circle cx="795" cy="1105" r="10" fill="#3A86FF"/>
  <text x="795" y="1109" font-family="Open Sans" font-size="14" font-weight="bold" fill="#FFFFFF" text-anchor="middle">+</text>
  
  <!-- Product 6 -->
  <rect x="900" y="780" width="220" height="320" fill="#FFFFFF" stroke="#D1D5DB" stroke-width="1" rx="10"/>
  <rect x="920" y="810" width="180" height="180" fill="#D1D5DB" rx="5"/>
  <text x="1010" y="1020" font-family="Montserrat" font-size="16" font-weight="bold" fill="#1F2937" text-anchor="middle">Fralda Geriátrica XG</text>
  <text x="1010" y="1045" font-family="Open Sans" font-size="14" fill="#4B5563" text-anchor="middle">Absorção Noturna</text>
  <text x="1010" y="1070" font-family="Montserrat" font-size="16" font-weight="bold" fill="#38B000" text-anchor="middle">R$ 119,90/mês</text>
  
  <!-- Quantity Selector -->
  <rect x="950" y="1090" width="120" height="30" fill="#FFFFFF" stroke="#D1D5DB" stroke-width="1" rx="15"/>
  <circle cx="965" cy="1105" r="10" fill="#3A86FF"/>
  <text x="965" y="1109" font-family="Open Sans" font-size="14" font-weight="bold" fill="#FFFFFF" text-anchor="middle">-</text>
  <text x="1010" y="1109" font-family="Open Sans" font-size="14" fill="#1F2937" text-anchor="middle">0</text>
  <circle cx="1055" cy="1105" r="10" fill="#3A86FF"/>
  <text x="1055" y="1109" font-family="Open Sans" font-size="14" font-weight="bold" fill="#FFFFFF" text-anchor="middle">+</text>
  
  <!-- Cart Summary -->
  <rect x="350" y="1850" width="800" height="100" fill="#FFFFFF" stroke="#D1D5DB" stroke-width="1"/>
  <text x="380" y="1880" font-family="Montserrat" font-size="16" font-weight="bold" fill="#1F2937">Resumo do Carrinho</text>
  <text x="380" y="1910" font-family="Open Sans" font-size="14" fill="#4B5563">1 produto selecionado</text>
  <text x="900" y="1890" font-family="Montserrat" font-size="18" font-weight="bold" fill="#1F2937">Total: R$ 89,90/mês</text>
  
  <!-- Continue Button -->
  <rect x="950" y="1920" width="180" height="50" rx="25" fill="#38B000"/>
  <text x="1040" y="1950" font-family="Open Sans" font-size="16" font-weight="bold" fill="#FFFFFF" text-anchor="middle">Continuar</text>
</svg>